<svg xmlns="http://www.w3.org/2000/svg" width="600" height="400" viewBox="0 0 600 400">
  <defs>
    <linearGradient id="t" x1="0" y1="0" x2="0" y2="1">
      <stop offset="0" stop-color="#1d2a4a"/>
      <stop offset="1" stop-color="#0e1116"/>
    </linearGradient>
    <radialGradient id="g" cx="0" cy="1" r="0.8">
      <stop offset="0" stop-color="#2f6bff" stop-opacity="0.75"/>
      <stop offset="1" stop-color="#2f6bff" stop-opacity="0"/>
    </radialGradient>
    <clipPath id="r"><rect x="8" y="8" width="584" height="262" rx="22"/></clipPath>
  </defs>
  <rect width="600" height="400" fill="#f1f2f4"/>
  <!-- hero v zaoblenom ráme -->
  <g clip-path="url(#r)">
    <rect x="8" y="8" width="584" height="262" fill="url(#t)"/>
    <rect x="8" y="8" width="584" height="262" fill="url(#g)"/>
    <text x="300" y="190" text-anchor="middle" font-family="Arial Black, Arial, sans-serif" font-weight="900" font-size="168" letter-spacing="-8" fill="none" stroke="#ffffff" stroke-opacity="0.28" stroke-width="2">FKD</text>
  </g>
  <!-- plávajúci ostrov navigácie -->
  <rect x="40" y="22" width="520" height="40" rx="14" fill="#0e1116" fill-opacity="0.85" stroke="#ffffff" stroke-opacity="0.14"/>
  <rect x="47" y="28" width="28" height="28" rx="9" fill="#ffffff"/>
  <path d="M61 32 l8 3 v6 c0 5 -3.5 8 -8 10 c-4.5 -2 -8 -5 -8 -10 v-6 z" fill="#2f6bff"/>
  <rect x="84" y="38" width="30" height="8" rx="2" fill="#ffffff"/>
  <rect x="190" y="39" width="34" height="6" rx="3" fill="#ffffff" fill-opacity="0.7"/>
  <rect x="236" y="39" width="40" height="6" rx="3" fill="#ffffff" fill-opacity="0.7"/>
  <rect x="288" y="39" width="30" height="6" rx="3" fill="#ffffff" fill-opacity="0.7"/>
  <rect x="330" y="39" width="38" height="6" rx="3" fill="#ffffff" fill-opacity="0.7"/>
  <circle cx="474" cy="42" r="7" fill="none" stroke="#ffffff" stroke-width="2"/>
  <rect x="490" y="29" width="62" height="26" rx="9" fill="#2f6bff"/>
  <rect x="503" y="39" width="36" height="6" rx="3" fill="#ffffff"/>
  <!-- titulok -->
  <rect x="40" y="150" width="62" height="14" rx="7" fill="#ffffff" fill-opacity="0.16"/>
  <circle cx="49" cy="157" r="3" fill="#c6f432"/>
  <rect x="40" y="174" width="250" height="18" rx="3" fill="#ffffff"/>
  <rect x="40" y="198" width="190" height="18" rx="3" fill="#ffffff"/>
  <circle cx="54" cy="238" r="12" fill="#ffffff"/>
  <path d="M49 238 h9 m-3 -3 l3 3 l-3 3" stroke="#0e1116" stroke-width="2" fill="none" stroke-linecap="round"/>
  <rect x="96" y="235" width="34" height="5" rx="2.5" fill="#c6f432"/>
  <rect x="136" y="235" width="20" height="5" rx="2.5" fill="#ffffff" fill-opacity="0.3"/>
  <!-- sklenená karta zápasu -->
  <rect x="396" y="128" width="168" height="124" rx="16" fill="#ffffff" fill-opacity="0.1" stroke="#ffffff" stroke-opacity="0.2"/>
  <rect x="408" y="140" width="56" height="5" rx="2.5" fill="#c6f432"/>
  <circle cx="430" cy="172" r="13" fill="#2f6bff"/>
  <circle cx="530" cy="172" r="13" fill="#ffffff"/>
  <rect x="465" y="166" width="30" height="12" rx="3" fill="#ffffff"/>
  <rect x="408" y="198" width="34" height="20" rx="6" fill="#000000" fill-opacity="0.3"/>
  <rect x="446" y="198" width="34" height="20" rx="6" fill="#000000" fill-opacity="0.3"/>
  <rect x="484" y="198" width="34" height="20" rx="6" fill="#000000" fill-opacity="0.3"/>
  <rect x="522" y="198" width="30" height="20" rx="6" fill="#000000" fill-opacity="0.3"/>
  <rect x="408" y="226" width="68" height="16" rx="6" fill="#2f6bff"/>
  <rect x="482" y="226" width="70" height="16" rx="6" fill="#ffffff" fill-opacity="0.16"/>
  <!-- naklonený neónový pás -->
  <g transform="rotate(-2.2 300 274)">
    <rect x="-20" y="260" width="640" height="28" fill="#c6f432"/>
    <rect x="20" y="271" width="70" height="7" rx="3" fill="#0e1116"/>
    <rect x="96" y="268" width="26" height="13" rx="6.5" fill="#0e1116"/>
    <rect x="128" y="271" width="60" height="7" rx="3" fill="#0e1116"/>
    <rect x="220" y="271" width="80" height="7" rx="3" fill="#0e1116"/>
    <rect x="306" y="268" width="26" height="13" rx="6.5" fill="#0e1116"/>
    <rect x="338" y="271" width="56" height="7" rx="3" fill="#0e1116"/>
    <rect x="426" y="271" width="74" height="7" rx="3" fill="#0e1116"/>
    <rect x="506" y="268" width="26" height="13" rx="6.5" fill="#0e1116"/>
    <rect x="538" y="271" width="50" height="7" rx="3" fill="#0e1116"/>
  </g>
  <!-- novinky - karusel -->
  <rect x="40" y="314" width="120" height="16" rx="3" fill="#12151b"/>
  <circle cx="530" cy="322" r="10" fill="#ffffff" stroke="#e2e4e9"/>
  <circle cx="554" cy="322" r="10" fill="#0e1116"/>
  <rect x="40" y="342" width="200" height="70" rx="14" fill="#33415c"/>
  <rect x="248" y="342" width="110" height="70" rx="14" fill="#4a5a7a"/>
  <rect x="366" y="342" width="110" height="70" rx="14" fill="#2b3550"/>
  <rect x="484" y="342" width="110" height="70" rx="14" fill="#56688c"/>
</svg>
