<svg xmlns="http://www.w3.org/2000/svg" width="600" height="400" viewBox="0 0 600 400" font-family="Poppins, Arial, sans-serif">
  <defs>
    <linearGradient id="hero" x1="0" y1="0" x2="0" y2="1">
      <stop offset="0" stop-color="#3a3f4f"/>
      <stop offset="0.55" stop-color="#1b1d27"/>
      <stop offset="1" stop-color="#0b0b10"/>
    </linearGradient>
    <linearGradient id="svetlo" x1="0" y1="0" x2="1" y2="1">
      <stop offset="0" stop-color="#ff4d4d" stop-opacity="0.35"/>
      <stop offset="1" stop-color="#ff4d4d" stop-opacity="0"/>
    </linearGradient>
    <clipPath id="ram"><rect width="600" height="400" rx="0"/></clipPath>
  </defs>
  <g clip-path="url(#ram)">
    <rect width="600" height="400" fill="#ffffff"/>
    <!-- úvod -->
    <rect width="600" height="210" fill="url(#hero)"/>
    <rect width="600" height="210" fill="url(#svetlo)"/>
    <circle cx="36" cy="30" r="16" fill="#ff4d4d"/>
    <text x="36" y="34" font-size="10" font-weight="800" fill="#fff" text-anchor="middle">FK</text>
    <g font-size="8" font-weight="600" fill="#fff" letter-spacing="1">
      <text x="72" y="33">DOMOV</text><text x="118" y="33">O NÁS</text><text x="160" y="33">ZÁPASY</text><text x="208" y="33">TÍMY</text><text x="244" y="33">KONTAKT</text>
    </g>
    <rect x="490" y="18" width="90" height="24" rx="12" fill="none" stroke="#fff" stroke-width="1.5"/>
    <text x="535" y="33" font-size="8" font-weight="700" fill="#fff" text-anchor="middle">Kontaktujte nás</text>
    <text x="28" y="118" font-size="8" font-weight="700" fill="#ff4d4d" letter-spacing="1.5">NAJNOVŠIE ČLÁNKY</text>
    <text x="28" y="142" font-size="21" font-weight="800" fill="#fff">Víťazstvo v derby pred</text>
    <text x="28" y="166" font-size="21" font-weight="800" fill="#fff">vypredaným štadiónom</text>
    <circle cx="40" cy="190" r="11" fill="none" stroke="#fff" stroke-opacity="0.6" stroke-width="1.5"/>
    <text x="62" y="193" font-size="8" font-weight="700" fill="#fff">01 / 03</text>
    <circle cx="106" cy="190" r="11" fill="none" stroke="#fff" stroke-opacity="0.6" stroke-width="1.5"/>
    <!-- zápasy -->
    <rect x="0" y="208" width="600" height="72" fill="#0b0b10"/>
    <path d="M0 280h600v0a24 24 0 0 1-24 24H24A24 24 0 0 1 0 280Z" fill="#0b0b10"/>
    <text x="28" y="232" font-size="13" font-weight="800" fill="#fff">Zápasy a výsledky</text>
    <rect x="470" y="220" width="50" height="18" rx="9" fill="#ff4d4d"/>
    <text x="495" y="232" font-size="7" font-weight="700" fill="#fff" text-anchor="middle">A tím</text>
    <rect x="526" y="220" width="50" height="18" rx="9" fill="none" stroke="#fff" stroke-opacity="0.25"/>
    <text x="551" y="232" font-size="7" font-weight="700" fill="#fff" text-anchor="middle">B tím</text>
    <g>
      <rect x="28" y="250" width="172" height="104" rx="14" fill="#fff" stroke="#e7e7ea"/>
      <rect x="40" y="262" width="30" height="10" rx="5" fill="#ffe4e4"/><text x="55" y="270" font-size="5.5" font-weight="800" fill="#ff4d4d" text-anchor="middle">DOMA</text>
      <circle cx="48" cy="294" r="7" fill="#0b0b10"/><rect x="60" y="291" width="70" height="6" rx="3" fill="#0b0b10"/><text x="186" y="297" font-size="9" font-weight="800" fill="#0b0b10" text-anchor="end">2</text>
      <circle cx="48" cy="314" r="7" fill="#ff4d4d"/><rect x="60" y="311" width="58" height="6" rx="3" fill="#0b0b10"/><text x="186" y="317" font-size="9" font-weight="800" fill="#0b0b10" text-anchor="end">1</text>
      <rect x="40" y="332" width="48" height="12" rx="4" fill="#0b0b10"/><rect x="94" y="332" width="48" height="12" rx="4" fill="#f0f0f2"/><rect x="148" y="332" width="40" height="12" rx="4" fill="#f0f0f2"/>
    </g>
    <g>
      <rect x="214" y="250" width="172" height="104" rx="14" fill="#fff" stroke="#e7e7ea"/>
      <rect x="226" y="262" width="30" height="10" rx="5" fill="#f0f0f2"/>
      <circle cx="234" cy="294" r="7" fill="#0b0b10"/><rect x="246" y="291" width="64" height="6" rx="3" fill="#0b0b10"/>
      <circle cx="234" cy="314" r="7" fill="#ff4d4d"/><rect x="246" y="311" width="72" height="6" rx="3" fill="#0b0b10"/>
      <rect x="336" y="296" width="38" height="16" rx="8" fill="#0b0b10"/><text x="355" y="307" font-size="7" font-weight="800" fill="#fff" text-anchor="middle">16:00</text>
      <rect x="226" y="332" width="48" height="12" rx="4" fill="#0b0b10"/><rect x="280" y="332" width="48" height="12" rx="4" fill="#f0f0f2"/><rect x="334" y="332" width="40" height="12" rx="4" fill="#f0f0f2"/>
    </g>
    <g>
      <rect x="400" y="250" width="172" height="104" rx="14" fill="#fff" stroke="#e7e7ea"/>
      <rect x="412" y="262" width="30" height="10" rx="5" fill="#ffe4e4"/>
      <circle cx="420" cy="294" r="7" fill="#0b0b10"/><rect x="432" y="291" width="74" height="6" rx="3" fill="#0b0b10"/>
      <circle cx="420" cy="314" r="7" fill="#ff4d4d"/><rect x="432" y="311" width="60" height="6" rx="3" fill="#0b0b10"/>
      <rect x="522" y="296" width="38" height="16" rx="8" fill="#0b0b10"/><text x="541" y="307" font-size="7" font-weight="800" fill="#fff" text-anchor="middle">18:30</text>
      <rect x="412" y="332" width="48" height="12" rx="4" fill="#0b0b10"/><rect x="466" y="332" width="48" height="12" rx="4" fill="#f0f0f2"/><rect x="520" y="332" width="40" height="12" rx="4" fill="#f0f0f2"/>
    </g>
    <!-- články -->
    <text x="28" y="384" font-size="11" font-weight="800" fill="#0b0b10" letter-spacing="0.5">NAJNOVŠIE ČLÁNKY</text>
    <rect x="148" y="374" width="1.5" height="12" fill="#ff4d4d"/>
    <text x="158" y="384" font-size="8" font-weight="700" fill="#ff4d4d">Zobraziť všetky</text>
    <rect x="28" y="392" width="340" height="40" rx="10" fill="#e9e9ee"/>
    <rect x="380" y="392" width="192" height="40" rx="10" fill="#e9e9ee"/>
  </g>
</svg>
